<svg id="Layer_1" data-name="Layer 1" xmlns="http://www.w3.org/2000/svg" viewBox="0 0 33 33"><defs><style>.cls-1{fill:#fff0f0;}.cls-2{fill:#c67b52;}.cls-3{fill:#af6a52;}.cls-4{fill:#935b3e;}.cls-5{font-size:11.53px;fill:#fff;font-family:ArialRoundedMTBold, Arial Rounded MT Bold;}</style></defs><title>bind</title><circle class="cls-1" cx="16.5" cy="16.5" r="16.5"/><rect class="cls-2" x="9.6" y="7.76" width="14.71" height="19.37" rx="0.38" ry="0.38"/><path class="cls-3" d="M903.88,810.05V790.69h-2.73a.37.37,0,0,0-.37.37v18.61a.38.38,0,0,0,.37.38Z" transform="translate(-891.18 -782.93)"/><rect class="cls-4" x="12.32" y="8.66" width="0.75" height="17.56" rx="0.38" ry="0.38"/><rect class="cls-4" x="8.63" y="24.77" width="1.93" height="0.42" rx="0.21" ry="0.21"/><rect class="cls-4" x="8.63" y="23.1" width="1.93" height="0.42" rx="0.21" ry="0.21"/><rect class="cls-4" x="8.63" y="21.42" width="1.93" height="0.42" rx="0.21" ry="0.21"/><rect class="cls-4" x="8.63" y="19.74" width="1.93" height="0.42" rx="0.21" ry="0.21"/><rect class="cls-4" x="8.63" y="18.07" width="1.93" height="0.42" rx="0.21" ry="0.21"/><rect class="cls-4" x="8.63" y="16.39" width="1.93" height="0.42" rx="0.21" ry="0.21"/><rect class="cls-4" x="8.63" y="14.72" width="1.93" height="0.42" rx="0.21" ry="0.21"/><rect class="cls-4" x="8.63" y="13.04" width="1.93" height="0.42" rx="0.21" ry="0.21"/><rect class="cls-4" x="8.63" y="11.36" width="1.93" height="0.42" rx="0.21" ry="0.21"/><rect class="cls-4" x="8.63" y="9.69" width="1.93" height="0.42" rx="0.21" ry="0.21"/><text class="cls-5" transform="translate(14.43 21.31)">A</text></svg>