<svg id="Layer_1" data-name="Layer 1" xmlns="http://www.w3.org/2000/svg" viewBox="0 0 33 33"><defs><style>.cls-1{fill:#fff0f0;}.cls-2{fill:#c4c453;}.cls-3{fill:#706d36;}.cls-4{fill:#4f2513;}.cls-5{font-size:11.53px;fill:#fff;font-family:ArialRoundedMTBold, Arial Rounded MT Bold;}</style></defs><title>bing</title><circle class="cls-1" cx="16.5" cy="16.5" r="16.5"/><rect class="cls-2" x="9.63" y="6.93" width="14.71" height="19.37" rx="0.38" ry="0.38"/><path class="cls-3" d="M742.53,863.78V844.41h-2.72a.38.38,0,0,0-.38.38V863.4a.38.38,0,0,0,.38.38Z" transform="translate(-729.8 -837.48)"/><rect class="cls-4" x="12.35" y="7.84" width="0.75" height="17.56" rx="0.38" ry="0.38"/><rect class="cls-4" x="8.66" y="23.95" width="1.93" height="0.42" rx="0.21" ry="0.21"/><rect class="cls-4" x="8.66" y="22.27" width="1.93" height="0.42" rx="0.21" ry="0.21"/><rect class="cls-4" x="8.66" y="20.59" width="1.93" height="0.42" rx="0.21" ry="0.21"/><rect class="cls-4" x="8.66" y="18.92" width="1.93" height="0.42" rx="0.21" ry="0.21"/><rect class="cls-4" x="8.66" y="17.24" width="1.93" height="0.42" rx="0.21" ry="0.21"/><rect class="cls-4" x="8.66" y="15.57" width="1.93" height="0.42" rx="0.21" ry="0.21"/><rect class="cls-4" x="8.66" y="13.89" width="1.93" height="0.42" rx="0.21" ry="0.21"/><rect class="cls-4" x="8.66" y="12.21" width="1.93" height="0.42" rx="0.21" ry="0.21"/><rect class="cls-4" x="8.66" y="10.54" width="1.93" height="0.42" rx="0.21" ry="0.21"/><rect class="cls-4" x="8.66" y="8.86" width="1.93" height="0.42" rx="0.21" ry="0.21"/><text class="cls-5" transform="translate(14.46 20.49)">A</text></svg>