<svg id="Layer_1" data-name="Layer 1" xmlns="http://www.w3.org/2000/svg" viewBox="0 0 33 33"><defs><style>.cls-1{fill:#fff0f0;}.cls-2{fill:#e5a248;}.cls-3{fill:#af6a52;}.cls-4{fill:#935b3e;}.cls-5{fill:none;stroke:#fff;stroke-linecap:round;stroke-linejoin:round;}</style></defs><title>bjawa</title><circle class="cls-1" cx="16.5" cy="16.5" r="16.5"/><rect class="cls-2" x="9.63" y="7.31" width="14.72" height="19.38" rx="0.38" ry="0.38"/><path class="cls-3" d="M850.9,809.61V790.23h-2.72a.38.38,0,0,0-.38.38v18.62a.38.38,0,0,0,.38.38Z" transform="translate(-838.18 -782.93)"/><rect class="cls-4" x="12.35" y="8.21" width="0.75" height="17.57" rx="0.38" ry="0.38"/><rect class="cls-4" x="8.66" y="24.33" width="1.93" height="0.42" rx="0.21" ry="0.21"/><rect class="cls-4" x="8.66" y="22.65" width="1.93" height="0.42" rx="0.21" ry="0.21"/><rect class="cls-4" x="8.66" y="20.98" width="1.93" height="0.42" rx="0.21" ry="0.21"/><rect class="cls-4" x="8.66" y="19.3" width="1.93" height="0.42" rx="0.21" ry="0.21"/><rect class="cls-4" x="8.66" y="17.62" width="1.93" height="0.42" rx="0.21" ry="0.21"/><rect class="cls-4" x="8.66" y="15.95" width="1.93" height="0.42" rx="0.21" ry="0.21"/><rect class="cls-4" x="8.66" y="14.27" width="1.93" height="0.42" rx="0.21" ry="0.21"/><rect class="cls-4" x="8.66" y="12.59" width="1.93" height="0.42" rx="0.21" ry="0.21"/><rect class="cls-4" x="8.66" y="10.91" width="1.93" height="0.42" rx="0.21" ry="0.21"/><rect class="cls-4" x="8.66" y="9.24" width="1.93" height="0.42" rx="0.21" ry="0.21"/><path class="cls-5" d="M852.59,803s-.16-3.87,1.76-4.42,2.06,4.42,2.06,4.42a2,2,0,0,0,1.87-.64,3,3,0,0,0,.14-2.73,3,3,0,0,0-1.86-1.56h4.07s-.79,3.49,0,4.93" transform="translate(-838.18 -782.93)"/></svg>