<svg id="Layer_1" data-name="Layer 1" xmlns="http://www.w3.org/2000/svg" viewBox="0 0 33 33"><defs><style>.cls-1{fill:#fff0f0;}.cls-2{fill:#666;}.cls-3{fill:#ff4a5c;}</style></defs><title>bk</title><circle class="cls-1" cx="16.5" cy="16.5" r="16.5"/><path class="cls-2" d="M641.06,856.08a.57.57,0,0,1-.57.58h-2.9a.58.58,0,1,1,0-1.15h2.89a.58.58,0,0,1,.58.58" transform="translate(-613.47 -836.73)"/><path class="cls-2" d="M640.14,852.9a.57.57,0,0,1-.27.77l-2.61,1.24a.58.58,0,0,1-.77-.27.58.58,0,0,1,.27-.78l2.61-1.24a.58.58,0,0,1,.77.28" transform="translate(-613.47 -836.73)"/><path class="cls-2" d="M640.16,859.26a.57.57,0,0,0-.28-.77l-2.62-1.23a.58.58,0,0,0-.77.28.59.59,0,0,0,.28.77l2.62,1.23a.58.58,0,0,0,.77-.28" transform="translate(-613.47 -836.73)"/><path class="cls-3" d="M636.52,851.28a3.59,3.59,0,0,1-1.82-1.3c-.44-.7.09-.88-.09-2.83-.16-1.78-2.62-3.7-5.61-3.9a7.58,7.58,0,0,0-4.21,1c-3.72,2-5.19,6.33-2.32,10.48,2,2.93,1,4.6.42,5.19a.57.57,0,0,0-.06.7,4.87,4.87,0,0,0,1.48,1.38,4.17,4.17,0,0,0,3.25.43.58.58,0,0,0,.39-.34,2.64,2.64,0,0,1,2.65-1.83c1.51.23,3.63-.07,4.17-.59s0-1,.25-2.2a.23.23,0,0,0-.19-.27,2.55,2.55,0,0,1-1.51-.7.58.58,0,0,1,.39-1,2.26,2.26,0,0,0,1.7-.82.19.19,0,0,0,.05-.14c0-.29,0-.78-.06-1.17a.25.25,0,0,1,.16-.23c1.22-.44,1.66-1.67,1-1.88" transform="translate(-613.47 -836.73)"/></svg>