<svg id="Layer_1" data-name="Layer 1" xmlns="http://www.w3.org/2000/svg" viewBox="0 0 33 33"><defs><style>.cls-1{fill:#fff0f0;}.cls-2{fill:#666;}.cls-3{fill:#abcb57;}.cls-4{fill:#e5c400;}.cls-5{fill:#c8523b;}.cls-6{fill:#fff;}</style></defs><title>fisika</title><circle class="cls-1" cx="16.5" cy="16.5" r="16.5"/><path class="cls-2" d="M914.37,850.87h0v0c.07-2.14-.59-3.72-1.87-4.46s-3-.52-4.8.61l0,0,0,0c-1.81-1.13-3.52-1.35-4.8-.61s-1.94,2.32-1.86,4.46v0h0c-1.89,1-2.93,2.37-2.93,3.85s1,2.84,2.93,3.85h0v0c-.08,2.14.58,3.73,1.86,4.47a3.38,3.38,0,0,0,1.67.43,6.07,6.07,0,0,0,3.13-1l0,0,0,0a6.09,6.09,0,0,0,3.13,1,3.38,3.38,0,0,0,1.67-.43c1.28-.74,1.94-2.33,1.87-4.47v0h0c1.89-1,2.93-2.37,2.93-3.85S916.26,851.88,914.37,850.87ZM911.51,857a16.61,16.61,0,0,1-1.39,2,17,17,0,0,1-4.93,0,17.81,17.81,0,0,1-1.39-2,16.8,16.8,0,0,1-1.07-2.23,16.69,16.69,0,0,1,1.07-2.22,17.11,17.11,0,0,1,1.39-2,17,17,0,0,1,4.93,0,16,16,0,0,1,1.39,2,18.11,18.11,0,0,1,1.08,2.22A18.23,18.23,0,0,1,911.51,857Zm1.5-1a10.76,10.76,0,0,1,.41,2.08,10.78,10.78,0,0,1-2,.68,13.94,13.94,0,0,0,.86-1.34C912.54,856.92,912.79,856.44,913,856Zm-5.35,5.41a10.84,10.84,0,0,1-1.6-1.4c.52,0,1.06.07,1.6.07s1.07,0,1.59-.07A11.32,11.32,0,0,1,907.66,861.38Zm-3.76-2.65a10.78,10.78,0,0,1-2-.68,12.52,12.52,0,0,1,.41-2.08c.22.47.47.95.74,1.42S903.6,858.31,903.9,858.73Zm-.86-6.67c-.27.46-.52.94-.74,1.41a12.52,12.52,0,0,1-.41-2.08,10.78,10.78,0,0,1,2-.68C903.6,851.14,903.31,851.59,903,852.06Zm4.62-4a12,12,0,0,1,1.59,1.4c-.52-.05-1-.07-1.59-.07s-1.08,0-1.6.07A11.46,11.46,0,0,1,907.66,848.06Zm4.61,4a15.47,15.47,0,0,0-.86-1.35,10.78,10.78,0,0,1,2,.68,10.76,10.76,0,0,1-.41,2.08C912.79,853,912.54,852.52,912.27,852.06Zm-1.46-5.24a2.42,2.42,0,0,1,1.23.31c.92.53,1.42,1.7,1.43,3.32a13.07,13.07,0,0,0-2.88-.81,13.56,13.56,0,0,0-2.14-2.09A4.92,4.92,0,0,1,910.81,846.82Zm-7.54.31a2.46,2.46,0,0,1,1.24-.31,4.92,4.92,0,0,1,2.35.73,14,14,0,0,0-2.14,2.09,13.38,13.38,0,0,0-2.88.81C901.85,848.83,902.36,847.66,903.27,847.13Zm-4.38,7.59c0-1.06.77-2.08,2.16-2.9a12.89,12.89,0,0,0,.74,2.9,13,13,0,0,0-.74,2.9C899.66,856.8,898.89,855.78,898.89,854.72Zm4.38,7.59c-.91-.53-1.42-1.7-1.43-3.32a6.12,6.12,0,0,1,5,2.9C905.46,862.69,904.19,862.84,903.27,862.31Zm8.77,0c-.92.53-2.19.38-3.59-.42a13.48,13.48,0,0,0,2.14-2.08,13.64,13.64,0,0,0,2.88-.82C913.46,860.61,913,861.78,912,862.31Zm2.22-4.69a13.55,13.55,0,0,0-.73-2.9,13.4,13.4,0,0,0,.73-2.9c1.4.82,2.16,1.84,2.16,2.9S915.66,856.8,914.26,857.62Z" transform="translate(-891.14 -838.32)"/><circle class="cls-3" cx="25.72" cy="16.4" r="1.44"/><circle class="cls-4" cx="11.96" cy="24.29" r="1.44"/><circle class="cls-5" cx="11.91" cy="8.43" r="1.44"/><circle class="cls-6" cx="16.48" cy="16.41" r="1.44"/></svg>