<svg id="Layer_1" data-name="Layer 1" xmlns="http://www.w3.org/2000/svg" viewBox="0 0 33 33"><defs><style>.cls-1{fill:#fff0f0;}.cls-2{fill:#efbb89;}.cls-3{fill:#00a077;}.cls-4{fill:#fff;}</style></defs><title>mtk</title><circle class="cls-1" cx="16.5" cy="16.5" r="16.5"/><rect class="cls-2" x="7.56" y="8.88" width="17.89" height="10.24" rx="0.5" ry="0.5"/><rect class="cls-2" x="776.73" y="799.26" width="19.33" height="1.34" rx="0.08" ry="0.08" transform="translate(-913.51 652.54) rotate(-80)"/><rect class="cls-2" x="797.09" y="790.26" width="1.34" height="19.33" rx="0.08" ry="0.08" transform="translate(-902.36 -632.25) rotate(-10)"/><rect class="cls-3" x="8.31" y="9.53" width="16.38" height="8.94" rx="0.5" ry="0.5"/><rect class="cls-2" x="7.29" y="20.32" width="18.41" height="0.45" rx="0.1" ry="0.1"/><rect class="cls-2" x="9.57" y="23.96" width="13.86" height="1.09" rx="0.1" ry="0.1"/><path class="cls-4" d="M793.32,796.5h-2.73a.43.43,0,0,0-.42.43.42.42,0,0,0,.42.42h2.73a.41.41,0,0,0,.41-.42A.42.42,0,0,0,793.32,796.5Z" transform="translate(-775.58 -782.93)"/><circle class="cls-4" cx="16.38" cy="12.73" r="0.42"/><circle class="cls-4" cx="16.38" cy="15.27" r="0.42"/><path class="cls-4" d="M789.48,799h-2.83a.32.32,0,0,1-.26-.47l1-1.63-1-1.64a.32.32,0,0,1,.26-.47h2.83a.31.31,0,0,1,0,.62H787.2l.81,1.33a.31.31,0,0,1,0,.32l-.81,1.33h2.28a.29.29,0,0,1,.3.3A.3.3,0,0,1,789.48,799Z" transform="translate(-775.58 -782.93)"/><rect class="cls-4" x="18.54" y="12.13" width="3.69" height="0.61" rx="0.31" ry="0.31"/><rect class="cls-4" x="793.47" y="796.77" width="3.43" height="0.61" rx="0.31" ry="0.31" transform="translate(-777.47 809.34) rotate(-90)"/><path class="cls-4" d="M797.08,798.52a6.21,6.21,0,0,1-.52-2.82c0-.24.11-.33.29-.34h0a.26.26,0,0,1,.31.29,6.19,6.19,0,0,0,.49,2.69.26.26,0,0,1-.17.39h0C797.32,798.78,797.18,798.73,797.08,798.52Z" transform="translate(-775.58 -782.93)"/></svg>