<svg id="Layer_1" data-name="Layer 1" xmlns="http://www.w3.org/2000/svg" viewBox="0 0 33 33"><defs><style>.cls-1{fill:#fff0f0;}.cls-2{fill:#ff4a5c;}.cls-3{fill:#e5516e;}.cls-4{fill:#c96578;}.cls-5{fill:#fff;}.cls-6{fill:#f4f4f4;}</style></defs><title>pai</title><circle class="cls-1" cx="16.5" cy="16.5" r="16.5"/><path class="cls-2" d="M11.1,6.81H22.74a1.5,1.5,0,0,1,1.5,1.5V23.63a0,0,0,0,1,0,0H11.1a0,0,0,0,1,0,0V6.81A0,0,0,0,1,11.1,6.81Z"/><path class="cls-3" d="M797,844.29h2.24a.06.06,0,0,1,.06.06v15.27a1.5,1.5,0,0,1-1.5,1.5h-.86a0,0,0,0,1,0,0V844.35A.06.06,0,0,1,797,844.29Z" transform="translate(808.05 867.92) rotate(180)"/><path class="cls-4" d="M803.3,854.52h1.4a1.4,1.4,0,0,1,1.4,1.4v12.61a1.5,1.5,0,0,1-1.5,1.5h-1.3a0,0,0,0,1,0,0v-15.5A0,0,0,0,1,803.3,854.52Z" transform="translate(878.77 -779.9) rotate(90)"/><path class="cls-5" d="M9.94,23.39H23.24a0,0,0,0,1,0,0v1.49a.5.5,0,0,1-.5.5H11.44a1.5,1.5,0,0,1-1.5-1.5v-.49A0,0,0,0,1,9.94,23.39Z"/><rect class="cls-6" x="9.94" y="23.39" width="13.31" height="0.6"/><path class="cls-4" d="M810.21,851.15v3.1a2.78,2.78,0,0,0-2.78,2.79h-3.11a2.79,2.79,0,0,0-2.78-2.79v-3.1a2.78,2.78,0,0,0,2.78-2.78h3.11A2.77,2.77,0,0,0,810.21,851.15Z" transform="translate(-788.2 -837.48)"/><path class="cls-5" d="M806.55,854.46a1.79,1.79,0,0,1-.57.09,1.85,1.85,0,0,1,0-3.7,1.79,1.79,0,0,1,.57.09,1.85,1.85,0,0,0-1.29,1.76A1.83,1.83,0,0,0,806.55,854.46Z" transform="translate(-788.2 -837.48)"/><polygon class="cls-5" points="18.18 14.58 18.32 15.02 18.79 15.02 18.41 15.3 18.55 15.74 18.18 15.47 17.8 15.74 17.95 15.3 17.57 15.02 18.03 15.02 18.18 14.58"/></svg>