<svg id="Layer_1" data-name="Layer 1" xmlns="http://www.w3.org/2000/svg" viewBox="0 0 33 33"><defs><style>.cls-1{fill:#fff0f0;}.cls-2{fill:#665614;}.cls-3{fill:#d6b92d;}.cls-4{fill:#fff;}.cls-5{fill:#f4d72c;}</style></defs><title>penjas2</title><circle class="cls-1" cx="16.5" cy="16.5" r="16.5"/><rect class="cls-2" x="12.65" y="24.73" width="7.4" height="0.81" rx="0.1" ry="0.1"/><polygon class="cls-3" points="17.05 12.53 17.04 12.66 17.03 12.9 16.61 21.25 16.08 21.25 15.66 12.9 15.65 12.66 15.64 12.53 17.05 12.53"/><polygon class="cls-4" points="16.35 13.8 16.33 13.81 16.33 13.8 16.33 13.79 16.04 12.53 16.22 12.53 16.34 13.78 16.34 13.8 16.35 13.8"/><polygon class="cls-4" points="16.65 12.53 16.36 13.79 16.36 13.8 16.36 13.81 16.35 13.8 16.35 13.8 16.35 13.78 16.47 12.53 16.65 12.53"/><rect class="cls-3" x="684.54" y="847.42" width="0.65" height="11.61" transform="translate(-812.05 -700.86) rotate(-10.33)"/><rect class="cls-3" x="682.37" y="852.9" width="11.61" height="0.65" transform="translate(-944.79 539.79) rotate(-79.67)"/><path class="cls-2" d="M13.14,25.44h6.41a0,0,0,0,1,0,0V26a.3.3,0,0,1-.3.3H13.64a.5.5,0,0,1-.5-.5v-.31A0,0,0,0,1,13.14,25.44Z"/><polygon class="cls-2" points="18.34 21.91 14.35 21.91 12.79 24.83 19.9 24.83 18.34 21.91"/><path class="cls-2" d="M14.35,21.51h4a.1.1,0,0,1,.1.1v.3a.1.1,0,0,1-.1.1h-4a.11.11,0,0,1-.11-.11v-.29A.1.1,0,0,1,14.35,21.51Z"/><path class="cls-2" d="M14.62,21.1h3.44a.3.3,0,0,1,.3.3v.2a0,0,0,0,1,0,0h-4a0,0,0,0,1,0,0V21.4a.3.3,0,0,1,.3-.3Z"/><circle class="cls-5" cx="16.34" cy="9.8" r="2.83"/><rect class="cls-3" x="13.2" y="9.73" width="6.29" height="0.39" rx="0.2" ry="0.2"/></svg>