<svg id="Layer_1" data-name="Layer 1" xmlns="http://www.w3.org/2000/svg" viewBox="0 0 33 33"><defs><style>.cls-1{fill:#fff0f0;}.cls-2{fill:#666;}.cls-3{fill:#ddac5e;}.cls-4{fill:none;stroke:#dbc43e;stroke-linecap:round;stroke-linejoin:round;stroke-width:0.5px;}.cls-5{fill:#f4d72c;}.cls-6{fill:#dbc43e;}</style></defs><title>penjas</title><circle class="cls-1" cx="16.5" cy="16.5" r="16.5"/><path class="cls-2" d="M13.34,25.06h6.32a.5.5,0,0,1,.5.5v.08a.5.5,0,0,1-.5.5H13.34a.5.5,0,0,1-.5-.5v-.07a.51.51,0,0,1,.51-.51Z"/><path class="cls-2" d="M733.85,807.64h6.81a0,0,0,0,1,0,0v1.76a.5.5,0,0,1-.5.5h-5.81a.5.5,0,0,1-.5-.5v-1.77A0,0,0,0,1,733.85,807.64Z" transform="translate(753.76 832.84) rotate(180)"/><rect class="cls-3" x="16.19" y="12.42" width="0.63" height="9.02"/><path class="cls-2" d="M739.41,807v2H735.1v-2a1,1,0,0,0,1-1h2.3A1,1,0,0,0,739.41,807Z" transform="translate(-720.75 -784.72)"/><path class="cls-4" d="M734,794.11h-1.51s.53-2.53-.52-2.53-.79,4.84,2.08,7.08" transform="translate(-720.75 -784.72)"/><path class="cls-4" d="M740.53,794.15H742s-.52-2.53.52-2.53.8,4.84-2.07,7.09" transform="translate(-720.75 -784.72)"/><path class="cls-5" d="M740.66,793.71c0-.55-6.81-.55-6.81,0v4.53c0,1.51,1.52,2.74,3.4,2.74h0c1.88,0,3.41-1.23,3.41-2.74Z" transform="translate(-720.75 -784.72)"/><rect class="cls-6" x="15.9" y="16.98" width="1.21" height="1.21" rx="0.5" ry="0.5"/></svg>