<svg id="Layer_1" data-name="Layer 1" xmlns="http://www.w3.org/2000/svg" viewBox="0 0 33 33"><defs><style>.cls-1{fill:#fff0f0;}.cls-2{fill:#6cd86f;}.cls-3{fill:#539b53;}.cls-4{fill:#7bbf7b;}.cls-5{fill:#fff;}.cls-6{fill:#f4f4f4;}.cls-7{fill:#6b441a;}</style></defs><title>pkn</title><circle class="cls-1" cx="16.5" cy="16.5" r="16.5"/><path class="cls-2" d="M11.1,7.12H23.75a.5.5,0,0,1,.5.5V23.94a0,0,0,0,1,0,0H11.1a0,0,0,0,1,0,0V7.12A0,0,0,0,1,11.1,7.12Z"/><path class="cls-3" d="M674.73,791.84H677a.06.06,0,0,1,.06.06v15.27a1.5,1.5,0,0,1-1.5,1.5h-.85a0,0,0,0,1,0,0V791.9A.06.06,0,0,1,674.73,791.84Z" transform="translate(685.78 815.78) rotate(180)"/><path class="cls-4" d="M681,802.07h2.3a.5.5,0,0,1,.5.5v13.5a1.5,1.5,0,0,1-1.5,1.5H681a0,0,0,0,1,0,0v-15.5A0,0,0,0,1,681,802.07Z" transform="translate(826.32 -657.32) rotate(90)"/><path class="cls-5" d="M9.94,23.7H23.24a0,0,0,0,1,0,0v1.49a.5.5,0,0,1-.5.5H11.44a1.5,1.5,0,0,1-1.5-1.5V23.7A0,0,0,0,1,9.94,23.7Z"/><rect class="cls-6" x="9.94" y="23.7" width="13.31" height="0.6"/><path class="cls-7" d="M679.86,802.11h0Z" transform="translate(-665.92 -784.72)"/><path class="cls-7" d="M687.79,798.44c-.32.4-.51.42-.51.42.58-.49.51-.86.51-.86-.22.4-.4.46-.41.47a.92.92,0,0,0,.35-.85,1.07,1.07,0,0,1-.42.55c.58-.56.36-1,.36-1a1.09,1.09,0,0,1-.5.67,1.18,1.18,0,0,0,.42-1.08,2.68,2.68,0,0,1-.39.62c.54-.77.25-1.13.25-1.13a1.09,1.09,0,0,1-.26.54,1.2,1.2,0,0,0,.06-1,.74.74,0,0,1-.15.44c.19-.82-.09-.86-.09-.86a2.86,2.86,0,0,1-2,2.37,2.2,2.2,0,0,0-.68.55.14.14,0,0,1-.19.07c-.11,0-.24-.5-.24-.5s.15,0,.15,0l-.16-.11.16,0-.15-.07a.15.15,0,0,0,.15-.09.39.39,0,0,1-.22,0,.16.16,0,0,0,.18-.07.25.25,0,0,1-.22-.12c.11,0,.22-.08.22-.08-.19.08-.36-.17-.34-.26s-.13-.3-.13-.3a.23.23,0,0,0,.13-.21s-.07,0-.07,0,0-.17,0-.13-.1,0-.1,0a.25.25,0,0,0,.1-.26,1,1,0,0,1-1,.25.31.31,0,0,0-.2.06l-.13-.09v.11l-.12-.06a.14.14,0,0,0,.08.14l-.17-.05s.08.12.08.12h-.13c0,.08.15.11.15.11-.54.26-.38.53-.38.53a.74.74,0,0,1,.82-.24c-.08.22-.59.12-.59.12s.06.24.15.2a2.18,2.18,0,0,1,.42-.06c.18.17-.12.23-.12.23s.05.13.05.13h-.12a.28.28,0,0,0,.13.2h-.18a.32.32,0,0,0,.1.17h-.17a.47.47,0,0,0,.13.16h-.13a.15.15,0,0,0,.06.11.19.19,0,0,1-.23.17,4.06,4.06,0,0,0-1.51-1c-1.06-.44-1.3-2-1.3-2-.27.34,0,1.13,0,1.13a3.27,3.27,0,0,1-.29-.7,1.61,1.61,0,0,0,.32,1.34c-.19-.07-.51-.88-.51-.88-.22.76.56,1.46.58,1.48-.41-.16-.68-1-.68-1a1.61,1.61,0,0,0,.48,1.26c-.37-.18-.59-.82-.59-.82a1.29,1.29,0,0,0,.47,1.11,2.34,2.34,0,0,1-.53-.66,1.35,1.35,0,0,0,.45.95c-.13,0-.48-.52-.48-.52a1.23,1.23,0,0,0,.47.83c-.12,0-.47-.41-.47-.41a1,1,0,0,0,.35.56s-.29-.22-.29-.22a1.16,1.16,0,0,0,.48.69,2.05,2.05,0,0,1-.37-.2c.06.48.74.76.74.76-.28,0-.7-.44-.7-.44.07.46.73.72.73.72a1.29,1.29,0,0,1-.52-.22,1.32,1.32,0,0,0,.89.59,1.66,1.66,0,0,1-.64-.15.84.84,0,0,0,.48.36h-.23c.06.19.68.31.68.31a.67.67,0,0,1-.26,0c.12.24.64.22.64.22a.43.43,0,0,1-.27,0c.11.2.66.14.66.14s-.18.08-.18.08a.77.77,0,0,0,.71-.09v.1h.08a.86.86,0,0,0-.18.21h.09c-.08,0-.19.24-.19.24h.13s-.05.16-.05.16a5.19,5.19,0,0,1-.48.81l-.23-.21a.18.18,0,0,0-.2,0,3.71,3.71,0,0,0-.65-.8,1.86,1.86,0,0,1,.11.52.84.84,0,0,0-.56-.11c.16,0,.85,1,.85,1l.15-.14a.51.51,0,0,0,0,.1c.07.17.44.34.44.34a4.54,4.54,0,0,0,1,.53,3.9,3.9,0,0,0,2.69,0,3.62,3.62,0,0,0,1-.53.09.09,0,0,0,.1,0l.32-.29s0-.12,0-.12l0-.06a.23.23,0,0,0,.14.14,6.85,6.85,0,0,1,.76-.94,1.69,1.69,0,0,0-.49.1,2.81,2.81,0,0,1,.11-.51,3.16,3.16,0,0,0-.66.78.2.2,0,0,0-.17,0l-.22.21c-.14,0-.6-1-.6-1,.18,0,.18-.06.18-.06l-.24-.22H685l-.16-.17h.07v-.09a1,1,0,0,0,.74.13l-.17-.15c.51.08.59-.11.59-.12s-.22,0-.22,0c.56,0,.62-.19.62-.19l-.19,0c.5-.1.6-.29.6-.29h-.24c.41-.15.46-.34.46-.34s-.78.14-.81.14c1.12-.21,1-.6,1-.6-.14.19-.55.2-.55.2.82-.25.79-.71.79-.71-.1.26-.48.35-.5.36.64-.35.51-.71.51-.71s-.17.13-.17.13c.37-.35.3-.59.3-.59a.76.76,0,0,1-.18.18A1.4,1.4,0,0,0,687.79,798.44Zm-5.74,5.31a2.21,2.21,0,0,1-.7-.36s0-.15,0-.15,0-.1,0-.1a8.91,8.91,0,0,1,.68-.75c.1,0,.38-.28.38-.28a.45.45,0,0,0,.12.14Zm3.06-.55a.16.16,0,0,0-.05.19,2,2,0,0,1-.71.36v0l0-.05-.46-1.38v0h0a.27.27,0,0,0,.17-.14s.23.27.37.29S685.11,803.2,685.11,803.2Z" transform="translate(-665.92 -784.72)"/><path class="cls-7" d="M684.28,804.61l.06.34a.56.56,0,0,1-.35-.2v.33s-.34-.16-.4-.3v.3a.62.62,0,0,1-.38-.31s-.08.33-.37.31v-.25a.91.91,0,0,1-.4.26v-.29a.79.79,0,0,1-.41.19s.16-.29.12-.34a.71.71,0,0,1-.47.18s.08-.21.18-.52l.19-.56c.21-.63.44-1.33.48-1.5,0,0,.6.33.69.29a1.9,1.9,0,0,0,.63-.29h0v0l.46,1.38,0,.05.2.58a3.53,3.53,0,0,0,.17.46S684.55,804.87,684.28,804.61Z" transform="translate(-665.92 -784.72)"/></svg>