<svg id="Layer_1" data-name="Layer 1" xmlns="http://www.w3.org/2000/svg" viewBox="0 0 33 33"><defs><style>.cls-1{fill:#fff0f0;}.cls-2{fill:#606060;}</style></defs><title>pkn2</title><circle class="cls-1" cx="16.5" cy="16.5" r="16.5"/><path class="cls-2" d="M610.29,805.39l0,0Z" transform="translate(-600.47 -785.12)"/><path class="cls-2" d="M626.07,798.1c-.63.79-1,.84-1,.84,1.16-1,1-1.72,1-1.72-.45.78-.8.92-.82.92a1.83,1.83,0,0,0,.71-1.68,2.08,2.08,0,0,1-.86,1.09c1.16-1.11.73-2,.73-2a2.18,2.18,0,0,1-1,1.33,2.32,2.32,0,0,0,.82-2.14,4.2,4.2,0,0,1-.78,1.21c1.08-1.52.5-2.24.5-2.24a2,2,0,0,1-.51,1.08,2.44,2.44,0,0,0,.13-2.07,1.52,1.52,0,0,1-.3.87c.38-1.62-.18-1.7-.18-1.7-.21,3.35-3.6,4.62-4,4.71a4.38,4.38,0,0,0-1.36,1.09.26.26,0,0,1-.37.14c-.21-.07-.48-1-.48-1,.25,0,.31-.07.31-.07l-.33-.21.33-.11-.3-.13a.32.32,0,0,0,.3-.19.67.67,0,0,1-.44-.09.29.29,0,0,0,.35-.12.51.51,0,0,1-.44-.25c.22.11.44-.15.44-.15-.38.16-.73-.34-.67-.53s-.27-.59-.27-.59a.48.48,0,0,0,.26-.42s-.14,0-.14,0c.16-.06.09-.34.09-.27s-.21.09-.21.09a.48.48,0,0,0,.19-.53,2,2,0,0,1-1.88.5.53.53,0,0,0-.38.13l-.27-.18v.2l-.23-.11a.29.29,0,0,0,.15.28l-.34-.1c0,.09.16.24.16.24h-.26c0,.15.29.22.29.22-1.07.52-.75,1.06-.75,1.06a1.48,1.48,0,0,1,1.64-.49c-.17.45-1.18.25-1.18.25-.31.24.12.48.3.4a4.35,4.35,0,0,1,.84-.12c.35.33-.25.45-.25.45s.11.26.11.26h-.25a.55.55,0,0,0,.26.4h-.35a.6.6,0,0,0,.2.33h-.33c0,.14.25.31.25.31h-.26a.27.27,0,0,0,.11.22.38.38,0,0,1-.45.35,7.8,7.8,0,0,0-3-2c-2.11-.88-2.58-4-2.58-4-.53.67.11,2.24.11,2.24a5.89,5.89,0,0,1-.59-1.38,3.18,3.18,0,0,0,.65,2.66c-.4-.14-1-1.75-1-1.75-.43,1.5,1.11,2.9,1.15,2.94-.82-.31-1.36-2-1.36-2a3.28,3.28,0,0,0,1,2.51c-.75-.36-1.18-1.63-1.18-1.63a2.54,2.54,0,0,0,.93,2.2,4.88,4.88,0,0,1-1.06-1.31,2.71,2.71,0,0,0,.89,1.9c-.25-.05-.95-1.05-.95-1.05a2.39,2.39,0,0,0,.95,1.65c-.24,0-.95-.82-.95-.82a2.14,2.14,0,0,0,.7,1.11,4.7,4.7,0,0,1-.57-.43,2.36,2.36,0,0,0,1,1.39,4,4,0,0,1-.73-.4c.11.94,1.48,1.5,1.48,1.5-.57,0-1.41-.87-1.41-.87.15.91,1.46,1.43,1.46,1.43a2.5,2.5,0,0,1-1-.44,2.64,2.64,0,0,0,1.78,1.17c-.33.11-1.28-.3-1.28-.3a1.62,1.62,0,0,0,.95.72l-.45,0c.13.39,1.36.62,1.36.62a1.51,1.51,0,0,1-.52,0c.24.48,1.27.44,1.27.44a.87.87,0,0,1-.53.05c.21.4,1.31.28,1.31.28s-.37.16-.37.16a1.64,1.64,0,0,0,1.43-.19v.2h.16a1.52,1.52,0,0,0-.38.42h.19c-.17,0-.39.48-.39.48h.26c.06.05-.09.32-.09.32a10.79,10.79,0,0,1-1,1.6L612,807a.33.33,0,0,0-.4,0,7,7,0,0,0-1.29-1.59,3.61,3.61,0,0,1,.22,1,1.68,1.68,0,0,0-1.11-.21c.32,0,1.69,1.91,1.69,1.91l.3-.27a.89.89,0,0,0,0,.19c.13.35.87.69.87.69a9.38,9.38,0,0,0,2,1,7.74,7.74,0,0,0,5.34,0,7.56,7.56,0,0,0,2-1,.23.23,0,0,0,.2,0l.64-.57a.24.24,0,0,0,0-.24l.1-.13a.41.41,0,0,0,.28.27,14.49,14.49,0,0,1,1.52-1.86,3.22,3.22,0,0,0-1,.2,4.77,4.77,0,0,1,.22-1,6.14,6.14,0,0,0-1.32,1.56.34.34,0,0,0-.33,0l-.46.41c-.28-.06-1.18-1.91-1.18-1.91.35,0,.35-.11.35-.11l-.47-.44.22,0-.31-.33h.12v-.18a2,2,0,0,0,1.48.26l-.33-.29c1,.16,1.17-.21,1.18-.23a.68.68,0,0,1-.45-.07c1.11,0,1.24-.39,1.24-.39l-.38,0c1-.2,1.19-.57,1.19-.57h-.48c.82-.3.91-.68.91-.68-.26.27-1.55.28-1.61.28,2.24-.42,2.08-1.18,2.08-1.18-.27.36-1.08.39-1.08.39,1.62-.5,1.57-1.41,1.57-1.41-.2.52-1,.7-1,.71,1.26-.69,1-1.4,1-1.4s-.32.26-.32.26c.73-.71.59-1.19.59-1.19a1.22,1.22,0,0,1-.36.36A2.71,2.71,0,0,0,626.07,798.1Zm-11.42,10.54a4.3,4.3,0,0,1-1.39-.7c.08-.07,0-.3,0-.3s0-.21,0-.21c.07-.17,1.34-1.49,1.34-1.49.21,0,.76-.56.76-.56a.76.76,0,0,0,.24.29Zm6.08-1.08a.3.3,0,0,0-.08.37,4,4,0,0,1-1.42.71v0l0-.12-.91-2.73,0-.06v0a.49.49,0,0,0,.32-.29s.47.55.74.58S620.73,807.56,620.73,807.56Z" transform="translate(-600.47 -785.12)"/><path class="cls-2" d="M619.08,810.36l.12.68a1.16,1.16,0,0,1-.7-.39l0,.65s-.69-.32-.81-.6v.6a1.22,1.22,0,0,1-.74-.61s-.18.65-.75.61v-.5a1.75,1.75,0,0,1-.8.51v-.57a1.54,1.54,0,0,1-.81.39s.31-.59.23-.69a1.43,1.43,0,0,1-.92.37s.14-.43.35-1c.12-.34.25-.72.38-1.13.42-1.24.88-2.63,1-3,0,0,1.19.66,1.37.58a4.26,4.26,0,0,0,1.27-.58v0l0,.06.91,2.73a.56.56,0,0,1,0,.12l.39,1.14c.19.54.33.91.35.93S619.62,810.89,619.08,810.36Z" transform="translate(-600.47 -785.12)"/></svg>