<svg id="Layer_1" data-name="Layer 1" xmlns="http://www.w3.org/2000/svg" viewBox="0 0 33 33"><defs><style>.cls-1{fill:#fff0f0;}.cls-2{fill:#50ffab;}.cls-3{fill:#3eba7c;}.cls-4,.cls-5{fill:none;stroke:#1f7548;stroke-linecap:round;stroke-linejoin:round;}.cls-5{stroke-width:0.5px;}</style></defs><title>sejarah</title><circle class="cls-1" cx="16.5" cy="16.5" r="16.5"/><path class="cls-2" d="M862.84,848.07v16.11a.83.83,0,0,1-.87.79h-10.7a1.52,1.52,0,0,1-1.59-1.44V848.07a.85.85,0,0,1,.88-.8H862A.84.84,0,0,1,862.84,848.07Z" transform="translate(-839.76 -838.96)"/><ellipse class="cls-3" cx="11.36" cy="8.34" rx="1.44" ry="1.35"/><line class="cls-4" x1="12.09" y1="11.52" x2="21.42" y2="11.52"/><line class="cls-5" x1="13.55" y1="13.51" x2="21.42" y2="13.51"/><line class="cls-5" x1="12.09" y1="14.91" x2="21.42" y2="14.91"/><line class="cls-5" x1="12.09" y1="16.31" x2="21.42" y2="16.31"/><line class="cls-5" x1="12.09" y1="17.71" x2="21.42" y2="17.71"/><line class="cls-5" x1="12.09" y1="19.1" x2="19.09" y2="19.1"/><line class="cls-5" x1="16.56" y1="22.43" x2="21.42" y2="22.43"/><line class="cls-5" x1="14.53" y1="23.51" x2="21.42" y2="23.51"/><rect class="cls-3" x="9.92" y="8.34" width="2.88" height="16.23"/><path class="cls-2" d="M852.57,863.53a1.45,1.45,0,1,1-1.44-1.44A1.44,1.44,0,0,1,852.57,863.53Z" transform="translate(-839.76 -838.96)"/></svg>