<?xml version="1.0" encoding="UTF-8"?>
<svg width="16px" height="16px" viewBox="0 0 16 16" version="1.1" xmlns="http://www.w3.org/2000/svg" xmlns:xlink="http://www.w3.org/1999/xlink">
    <!-- Generator: sketchtool 49 (51002) - http://www.bohemiancoding.com/sketch -->
    <title>C9C92C7C-47FC-46A6-8283-09243EEC2FF7</title>
    <desc>Created with sketchtool.</desc>
    <defs></defs>
    <g id="Page-1" stroke="none" stroke-width="1" fill="none" fill-rule="evenodd">
        <g id="Download-tugas-(murid)" transform="translate(-27.000000, -82.000000)" fill="#737F87" fill-rule="nonzero">
            <g id="Sidebar">
                <g id="Group-21" transform="translate(27.000000, 82.000000)">
                    <g id="006-web">
                        <path d="M15.6516961,7.24097246 L8.84084523,0.35228102 C8.3764448,-0.117427007 7.6235552,-0.117427007 7.15915477,0.35228102 L0.348303948,7.24097246 C0.00821474085,7.58494852 -0.0934742432,8.10226118 0.090525929,8.55169566 C0.27461499,9.00113013 0.708215396,9.29413012 1.18914918,9.29413012 L2.1119056,9.29413012 L2.1119056,14.4445108 C2.1119056,15.3036418 2.80048402,16 3.64981815,16 L12.3501819,16 C13.199516,16 13.8880944,15.3035968 13.8880944,14.4445108 L13.8880944,9.29413012 L14.8108508,9.29413012 C15.2917846,9.29413012 15.7254295,9.00108518 15.9094741,8.55169566 C16.0934742,8.10226118 15.9917853,7.58494852 15.6516961,7.24097246 Z M10,14 L6,14 L6,11.8802055 C6,10.8417699 6.89545151,10 8,10 C9.10454849,10 10,10.8417234 10,11.8802055 L10,14 Z" id="Shape"></path>
                    </g>
                </g>
            </g>
        </g>
    </g>
</svg>