<svg xmlns="http://www.w3.org/2000/svg" viewBox="432 298 15 15">
  <defs>
    <style>
      .cls-1 {
        fill: #fe9499;
      }
    </style>
  </defs>
  <g id="calendar_2_" data-name="calendar (2)" transform="translate(426.589 298)">
    <g id="Group_1" data-name="Group 1" transform="translate(5.411)">
      <path id="Path_8" data-name="Path 8" class="cls-1" d="M118.946,258.582a.344.344,0,0,0-.348-.34h-1.215a.344.344,0,0,0-.348.34v1.188a.344.344,0,0,0,.348.34H118.6a.344.344,0,0,0,.348-.34v-1.188Z" transform="translate(-113.527 -250.307)"/>
      <path id="Path_9" data-name="Path 9" class="cls-1" d="M215.581,258.582a.344.344,0,0,0-.348-.34h-1.215a.344.344,0,0,0-.348.34v1.188a.344.344,0,0,0,.348.34h1.215a.344.344,0,0,0,.348-.34Z" transform="translate(-207.126 -250.307)"/>
      <path id="Path_10" data-name="Path 10" class="cls-1" d="M312.209,258.582a.344.344,0,0,0-.348-.34h-1.215a.344.344,0,0,0-.348.34v1.188a.344.344,0,0,0,.348.34h1.215a.344.344,0,0,0,.348-.34Z" transform="translate(-300.717 -250.307)"/>
      <path id="Path_11" data-name="Path 11" class="cls-1" d="M118.946,355.215a.344.344,0,0,0-.348-.34h-1.215a.344.344,0,0,0-.348.34V356.4a.344.344,0,0,0,.348.34H118.6a.344.344,0,0,0,.348-.34v-1.188Z" transform="translate(-113.527 -343.97)"/>
      <path id="Path_12" data-name="Path 12" class="cls-1" d="M215.581,355.215a.344.344,0,0,0-.348-.34h-1.215a.344.344,0,0,0-.348.34V356.4a.344.344,0,0,0,.348.34h1.215a.344.344,0,0,0,.348-.34Z" transform="translate(-207.126 -343.97)"/>
      <path id="Path_13" data-name="Path 13" class="cls-1" d="M312.209,355.215a.344.344,0,0,0-.348-.34h-1.215a.344.344,0,0,0-.348.34V356.4a.344.344,0,0,0,.348.34h1.215a.344.344,0,0,0,.348-.34v-1.188Z" transform="translate(-300.717 -343.97)"/>
      <path id="Path_14" data-name="Path 14" class="cls-1" d="M19.076,54.149v1.814a1.5,1.5,0,0,1-1.519,1.481H16.6a1.507,1.507,0,0,1-1.528-1.481V54.142H10.751v1.821a1.507,1.507,0,0,1-1.528,1.481H8.265a1.5,1.5,0,0,1-1.519-1.481V54.149a1.365,1.365,0,0,0-1.335,1.344V66.126a1.367,1.367,0,0,0,1.375,1.352h12.25a1.368,1.368,0,0,0,1.375-1.352V55.492A1.365,1.365,0,0,0,19.076,54.149Zm-.445,11.315a.588.588,0,0,1-.594.581H7.759a.588.588,0,0,1-.594-.581V59.971a.588.588,0,0,1,.594-.581H18.036a.588.588,0,0,1,.594.581v5.493Z" transform="translate(-5.411 -52.478)"/>
      <path id="Path_15" data-name="Path 15" class="cls-1" d="M80.071,3.993h.948a.515.515,0,0,0,.521-.509V.509A.515.515,0,0,0,81.019,0h-.948a.515.515,0,0,0-.521.509V3.484A.515.515,0,0,0,80.071,3.993Z" transform="translate(-77.22)"/>
      <path id="Path_16" data-name="Path 16" class="cls-1" d="M344.979,3.993h.948a.515.515,0,0,0,.521-.509V.509A.515.515,0,0,0,345.927,0h-.948a.515.515,0,0,0-.521.509V3.484A.515.515,0,0,0,344.979,3.993Z" transform="translate(-333.804)"/>
    </g>
  </g>
</svg>
