<?xml version="1.0" encoding="UTF-8"?>
<svg width="12px" height="14px" viewBox="0 0 12 14" version="1.1" xmlns="http://www.w3.org/2000/svg" xmlns:xlink="http://www.w3.org/1999/xlink">
    <!-- Generator: sketchtool 49 (51002) - http://www.bohemiancoding.com/sketch -->
    <title>8116FA88-E5A3-41DF-AE8B-BF5BDF9010C3</title>
    <desc>Created with sketchtool.</desc>
    <defs></defs>
    <g id="Page-1" stroke="none" stroke-width="1" fill="none" fill-rule="evenodd">
        <g id="Beranda-(murid)" transform="translate(-798.000000, -1015.000000)" fill="#C3C9D1" fill-rule="nonzero">
            <g id="Group-4" transform="translate(187.000000, 182.000000)">
                <g id="Group-5" transform="translate(0.000000, 637.000000)">
                    <g id="Group-19-Copy-9" transform="translate(30.000000, 183.000000)">
                        <g id="Rectangle-11">
                            <g id="copy-(1)">
                                <path d="M591.390907,13 L585.28261,13 C584.395336,13 583.673448,13.6951092 583.673448,14.5494698 L583.673448,14.7396387 L582.609162,14.7396387 C581.721888,14.7396387 581,15.4347478 581,16.2891085 L581,25.4505302 C581,26.3048908 581.721888,27 582.609162,27 L588.717459,27 C589.604733,27 590.326552,26.3048908 590.326552,25.4505302 L590.326552,25.2603613 L591.390838,25.2603613 C592.278112,25.2603613 593,24.5652522 593,23.7108915 L593,14.5494698 C593.000069,13.6951092 592.278181,13 591.390907,13 Z M589.288631,25.4505302 C589.288631,25.7537742 589.032385,26.000514 588.717528,26.000514 L582.609162,26.000514 C582.294236,26.000514 582.03799,25.7537742 582.03799,25.4505302 L582.03799,16.2890418 C582.03799,15.9857978 582.294236,15.739058 582.609162,15.739058 L588.717459,15.739058 C589.032385,15.739058 589.288561,15.9857978 589.288561,16.2890418 L589.288561,25.4505302 L589.288631,25.4505302 Z M591.962079,23.7108915 C591.962079,24.0141356 591.705834,24.2608754 591.390907,24.2608754 L590.326621,24.2608754 L590.326621,16.2890418 C590.326621,15.4346812 589.604733,14.739572 588.717528,14.739572 L584.711439,14.739572 L584.711439,14.5494032 C584.711439,14.2461591 584.967684,13.9994193 585.28261,13.9994193 L591.390907,13.9994193 C591.705834,13.9994193 591.962079,14.2461591 591.962079,14.5494032 L591.962079,23.7108915 Z" id="Shape"></path>
                            </g>
                        </g>
                    </g>
                </g>
            </g>
        </g>
    </g>
</svg>