<svg xmlns="http://www.w3.org/2000/svg" viewBox="442 316 10 10">
  <defs>
    <style>
      .cls-1 {
        fill: #c6d3db;
      }
    </style>
  </defs>
  <g id="folder" transform="translate(442 316)">
    <path id="Path_2" data-name="Path 2" class="cls-1" d="M9.582,4.5H9V3.455A.456.456,0,0,0,8.545,3H8V2.6l-.082-.082h0L6.7,1.3,5.4,0H1.333V1.833H.455A.456.456,0,0,0,0,2.289V9.57H0A.426.426,0,0,0,.428,10h7.46A.423.423,0,0,0,8.3,9.7L10,5.025V5A.446.446,0,0,0,9.582,4.5ZM8.545,3.333a.122.122,0,0,1,.122.122V4.5H8V3.333ZM5.5.569,7.431,2.5H5.5ZM1.667.333h3.5v2.5h2.5V4.5H2.122a.428.428,0,0,0-.07.006.42.42,0,0,0-.338.3l-.047.129V.333ZM.333,2.289a.122.122,0,0,1,.122-.122h.878V5.839l-1,2.727ZM7.978,9.6a.094.094,0,0,1-.091.069H.428A.092.092,0,0,1,.353,9.63a.09.09,0,0,1-.021-.068l1-2.745h0l.693-1.9,0-.014a.094.094,0,0,1,.091-.069h7.46c.063,0,.08.091.084.136Z"/>
    <path id="Path_3" data-name="Path 3" class="cls-1" d="M15.167,15.333h1.667a.167.167,0,0,0,0-.333H15.167a.167.167,0,1,0,0,.333Z" transform="translate(-12.5 -12.5)"/>
    <path id="Path_4" data-name="Path 4" class="cls-1" d="M15.167,8.333h1.667a.167.167,0,0,0,0-.333H15.167a.167.167,0,1,0,0,.333Z" transform="translate(-12.5 -6.667)"/>
    <path id="Path_5" data-name="Path 5" class="cls-1" d="M15.167,22.333h4a.167.167,0,1,0,0-.333h-4a.167.167,0,1,0,0,.333Z" transform="translate(-12.5 -18.333)"/>
  </g>
</svg>
