<?xml version="1.0" encoding="UTF-8"?>
<svg width="14px" height="16px" viewBox="0 0 14 16" version="1.1" xmlns="http://www.w3.org/2000/svg" xmlns:xlink="http://www.w3.org/1999/xlink">
    <!-- Generator: sketchtool 49 (51002) - http://www.bohemiancoding.com/sketch -->
    <title>1F408D1D-E94C-470E-8502-6BB1C00A5F7F</title>
    <desc>Created with sketchtool.</desc>
    <defs></defs>
    <g id="Page-1" stroke="none" stroke-width="1" fill="none" fill-rule="evenodd">
        <g id="Beranda" transform="translate(-28.000000, -262.000000)" fill="#737F87" fill-rule="nonzero">
            <g id="Sidebar">
                <g id="Group-27" transform="translate(27.000000, 262.000000)">
                    <g id="003-present" transform="translate(1.000000, 0.000000)">
                        <path d="M13.13095,3.74683968 L11.8068125,3.74683968 C12.0698812,3.35809962 12.2112813,2.90481373 12.2112813,2.43072415 C12.2112813,1.7813311 11.9471625,1.17107576 11.467225,0.711971536 C10.9874187,0.252867308 10.3494562,0 9.6707625,0 C8.99233125,0 8.35419375,0.252867308 7.87434375,0.711971536 L7,1.54851402 L6.125525,0.711971536 C5.64571875,0.252867308 5.00766875,0 4.32915,0 C3.65063125,0 3.01258125,0.252867308 2.532775,0.711971536 C1.672475,1.53478443 1.55981875,2.80602763 2.1937125,3.74683968 L0.86918125,3.74683968 C0.38915625,3.74683968 0,4.11925492 0,4.57856844 L0,7.14876517 C0,7.60807869 0.38915625,7.98024278 0.86918125,7.98024278 L0.871325,7.98024278 L0.871325,14.6365006 C0.871325,15.3895772 1.50950625,16 2.29656875,16 L11.7034313,16 C12.4904938,16 13.1285438,15.3895772 13.1285438,14.6365006 L13.1285438,7.98024278 L13.13095,7.98024278 C13.6110188,7.98024278 14,7.60803684 14,7.14876517 L14,4.57856844 C14,4.11925492 13.610975,3.74683968 13.13095,3.74683968 Z M4.2079352,3.2137572 C3.93068827,2.93664556 3.93068827,2.48547828 4.2079352,2.20812068 C4.34219274,2.07386911 4.52092949,2 4.71077579,2 C4.90074508,2 5.07935884,2.07386911 5.21361638,2.20812068 L6.60780402,3.60241038 C6.61165752,3.60638669 6.61542903,3.61028101 6.61924153,3.61417533 L7,4 L4.99425391,4 L4.2079352,3.2137572 Z M8,14 L6,14 L6,8 L8,8 L8,14 Z M9.79217767,3.2137572 L9.00725755,4 L7,4 L7.3812668,3.6177827 C7.38613699,3.61286356 7.39092534,3.60790342 7.39600016,3.60290229 L8.78818057,2.20812068 C8.92217235,2.07386911 9.1006098,2 9.29005634,2 C9.47974844,2 9.65814496,2.07386911 9.79217767,2.20812068 C9.92625131,2.34237226 10,2.52106008 10,2.71110291 C10,2.9008588 9.92625131,3.07950563 9.79217767,3.2137572 Z" id="Shape"></path>
                    </g>
                </g>
            </g>
        </g>
    </g>
</svg>