<?xml version="1.0" encoding="UTF-8"?>
<svg width="16px" height="16px" viewBox="0 0 16 16" version="1.1" xmlns="http://www.w3.org/2000/svg" xmlns:xlink="http://www.w3.org/1999/xlink">
    <!-- Generator: sketchtool 49 (51002) - http://www.bohemiancoding.com/sketch -->
    <title>F6E27783-2BDF-458A-8634-67F45FA8F356</title>
    <desc>Created with sketchtool.</desc>
    <defs></defs>
    <g id="Page-1" stroke="none" stroke-width="1" fill="none" fill-rule="evenodd">
        <g id="Beranda" transform="translate(-27.000000, -82.000000)" fill="#FFFFFF" fill-rule="nonzero">
            <g id="Sidebar">
                <g id="Group-21" transform="translate(0.000000, 60.000000)">
                    <g id="006-web">
                        <path d="M42.6516961,29.2409725 L35.8408452,22.352281 C35.3764448,21.882573 34.6235552,21.882573 34.1591548,22.352281 L27.3483039,29.2409725 C27.0082147,29.5849485 26.9065258,30.1022612 27.0905259,30.5516957 C27.274615,31.0011301 27.7082154,31.2941301 28.1891492,31.2941301 L29.1119056,31.2941301 L29.1119056,36.4445108 C29.1119056,37.3036418 29.800484,38 30.6498181,38 L39.3501819,38 C40.199516,38 40.8880944,37.3035968 40.8880944,36.4445108 L40.8880944,31.2941301 L41.8108508,31.2941301 C42.2917846,31.2941301 42.7254295,31.0010852 42.9094741,30.5516957 C43.0934742,30.1022612 42.9917853,29.5849485 42.6516961,29.2409725 Z M37,36 L33,36 L33,33.8802055 C33,32.8417699 33.8954515,32 35,32 C36.1045485,32 37,32.8417234 37,33.8802055 L37,36 Z" id="Shape"></path>
                    </g>
                </g>
            </g>
        </g>
    </g>
</svg>