<?xml version="1.0" encoding="UTF-8"?>
<svg width="16px" height="15px" viewBox="0 0 16 15" version="1.1" xmlns="http://www.w3.org/2000/svg" xmlns:xlink="http://www.w3.org/1999/xlink">
    <!-- Generator: sketchtool 49 (51002) - http://www.bohemiancoding.com/sketch -->
    <title>973AF5EE-A8F1-4AD4-B459-5F46B89271B3</title>
    <desc>Created with sketchtool.</desc>
    <defs></defs>
    <g id="Page-1" stroke="none" stroke-width="1" fill="none" fill-rule="evenodd">
        <g id="Download-tugas-(murid)" transform="translate(-27.000000, -143.000000)" fill="#FFFFFF" fill-rule="nonzero">
            <g id="Sidebar">
                <g id="Group-22" transform="translate(0.000000, 120.000000)">
                    <g id="005-briefcase" transform="translate(27.000000, 23.000000)">
                        <path d="M14.6666563,2.25885176 L11.3333437,2.25885176 L11.3333437,1.50588941 C11.3333437,0.675386125 10.735375,0 10,0 L6,0 C5.26465625,0 4.66665625,0.675350831 4.66665625,1.50588941 L4.66665625,2.25881647 L1.33334375,2.25881647 C0.59796875,2.25885176 0,2.9342026 0,3.76470588 L0,6.02352235 C0,6.85406093 0.59796875,7.52941176 1.33334375,7.52941176 L6.6666875,7.52941176 L6.6666875,7.15293059 C6.6666875,6.94483712 6.81578125,6.77644941 7.00003125,6.77644941 L9.00003125,6.77644941 C9.18428125,6.77644941 9.333375,6.94483712 9.333375,7.15293059 L9.333375,7.52941176 L14.6667187,7.52941176 C15.4020313,7.52941176 16,6.85406093 16,6.02352235 L16,3.76470588 C16,2.9342026 15.4020313,2.25885176 14.6666563,2.25885176 Z M10,2.25885176 L6,2.25885176 L6,1.50588941 L10,1.50588941 L10,2.25885176 Z" id="Shape"></path>
                        <path d="M15.8150629,7.56598076 C15.7014693,7.50748374 15.5657196,7.52102051 15.4654385,7.60013108 C15.2284703,7.78646454 14.9524083,7.88485769 14.6665964,7.88485769 L9.33332552,7.88485769 L9.33332552,8.92365051 C9.33332552,9.11504809 9.18423206,9.2699256 8.99998242,9.2699256 L6.99998633,9.2699256 C6.81573669,9.2699256 6.66664323,9.11504809 6.66664323,8.92365051 L6.66664323,7.88485769 L1.33334115,7.88485769 C1.0475292,7.88485769 0.771498493,7.78646454 0.534498956,7.60013108 C0.433905403,7.5203388 0.298499417,7.50680203 0.184874639,7.56598076 C0.0716248601,7.62451024 0,7.74452328 0,7.87609288 L0,12.7325791 C0,13.496449 0.597967582,14.1176471 1.33334115,14.1176471 L14.6666589,14.1176471 C15.4020012,14.1176471 16,13.4964814 16,12.7325791 L16,7.87609288 C15.9999688,7.74452328 15.9283439,7.62451024 15.8150629,7.56598076 Z" id="Shape"></path>
                    </g>
                </g>
            </g>
        </g>
    </g>
</svg>