<svg xmlns="http://www.w3.org/2000/svg" xmlns:xlink="http://www.w3.org/1999/xlink" viewBox="0 0 768 1024">
  <defs>
    <style>
      .cls-1 {
        clip-path: url(#clip-iPad_1);
      }

      .cls-2 {
        fill: #c3c9d1;
      }

      .cls-3 {
        fill: #c6d3db;
      }

      .cls-4 {
        fill: #fe9499;
      }

      .cls-5 {
        fill: #fff;
      }
    </style>
    <clipPath id="clip-iPad_1">
      <rect width="768" height="1024"/>
    </clipPath>
  </defs>
  <g id="iPad_1" data-name="iPad – 1" class="cls-1">
    <rect class="cls-5" width="768" height="1024"/>
    <g id="copy" transform="translate(341.653 277)">
      <path id="Path_1" data-name="Path 1" class="cls-2" d="M28.352,0H22.471a1.551,1.551,0,0,0-1.549,1.549v.19H19.9a1.551,1.551,0,0,0-1.549,1.549v9.161A1.551,1.551,0,0,0,19.9,14h5.882a1.551,1.551,0,0,0,1.549-1.549v-.19h1.025A1.551,1.551,0,0,0,29.9,10.711V1.549A1.551,1.551,0,0,0,28.352,0ZM26.328,12.451a.551.551,0,0,1-.55.55H19.9a.551.551,0,0,1-.55-.55V3.289a.551.551,0,0,1,.55-.55h5.882a.551.551,0,0,1,.55.55v9.161Zm2.574-1.74a.551.551,0,0,1-.55.55H27.328V3.289A1.551,1.551,0,0,0,25.778,1.74H21.921v-.19a.551.551,0,0,1,.55-.55h5.882a.551.551,0,0,1,.55.55v9.161Z" transform="translate(0 0)"/>
    </g>
    <g id="folder" transform="translate(442 316)">
      <path id="Path_2" data-name="Path 2" class="cls-3" d="M9.582,4.5H9V3.455A.456.456,0,0,0,8.545,3H8V2.6l-.082-.082h0L6.7,1.3,5.4,0H1.333V1.833H.455A.456.456,0,0,0,0,2.289V9.57H0A.426.426,0,0,0,.428,10h7.46A.423.423,0,0,0,8.3,9.7L10,5.025V5A.446.446,0,0,0,9.582,4.5ZM8.545,3.333a.122.122,0,0,1,.122.122V4.5H8V3.333ZM5.5.569,7.431,2.5H5.5ZM1.667.333h3.5v2.5h2.5V4.5H2.122a.428.428,0,0,0-.07.006.42.42,0,0,0-.338.3l-.047.129V.333ZM.333,2.289a.122.122,0,0,1,.122-.122h.878V5.839l-1,2.727ZM7.978,9.6a.094.094,0,0,1-.091.069H.428A.092.092,0,0,1,.353,9.63a.09.09,0,0,1-.021-.068l1-2.745h0l.693-1.9,0-.014a.094.094,0,0,1,.091-.069h7.46c.063,0,.08.091.084.136Z"/>
      <path id="Path_3" data-name="Path 3" class="cls-3" d="M15.167,15.333h1.667a.167.167,0,0,0,0-.333H15.167a.167.167,0,1,0,0,.333Z" transform="translate(-12.5 -12.5)"/>
      <path id="Path_4" data-name="Path 4" class="cls-3" d="M15.167,8.333h1.667a.167.167,0,0,0,0-.333H15.167a.167.167,0,1,0,0,.333Z" transform="translate(-12.5 -6.667)"/>
      <path id="Path_5" data-name="Path 5" class="cls-3" d="M15.167,22.333h4a.167.167,0,1,0,0-.333h-4a.167.167,0,1,0,0,.333Z" transform="translate(-12.5 -18.333)"/>
    </g>
    <g id="time" transform="translate(426 324)">
      <path id="Path_6" data-name="Path 6" class="cls-3" d="M7.5,0A7.5,7.5,0,1,0,15,7.5,7.509,7.509,0,0,0,7.5,0Zm0,14.5a7,7,0,1,1,7-7A7.008,7.008,0,0,1,7.5,14.5Z"/>
      <path id="Path_7" data-name="Path 7" class="cls-3" d="M17.25,6a.25.25,0,0,0-.25.25V12H13.25a.25.25,0,0,0,0,.5h4a.25.25,0,0,0,.25-.25v-6A.25.25,0,0,0,17.25,6Z" transform="translate(-9.75 -4.5)"/>
    </g>
    <g id="calendar_2_" data-name="calendar (2)" transform="translate(426.589 298)">
      <g id="Group_1" data-name="Group 1" transform="translate(5.411)">
        <path id="Path_8" data-name="Path 8" class="cls-4" d="M118.946,258.582a.344.344,0,0,0-.348-.34h-1.215a.344.344,0,0,0-.348.34v1.188a.344.344,0,0,0,.348.34H118.6a.344.344,0,0,0,.348-.34v-1.188Z" transform="translate(-113.527 -250.307)"/>
        <path id="Path_9" data-name="Path 9" class="cls-4" d="M215.581,258.582a.344.344,0,0,0-.348-.34h-1.215a.344.344,0,0,0-.348.34v1.188a.344.344,0,0,0,.348.34h1.215a.344.344,0,0,0,.348-.34Z" transform="translate(-207.126 -250.307)"/>
        <path id="Path_10" data-name="Path 10" class="cls-4" d="M312.209,258.582a.344.344,0,0,0-.348-.34h-1.215a.344.344,0,0,0-.348.34v1.188a.344.344,0,0,0,.348.34h1.215a.344.344,0,0,0,.348-.34Z" transform="translate(-300.717 -250.307)"/>
        <path id="Path_11" data-name="Path 11" class="cls-4" d="M118.946,355.215a.344.344,0,0,0-.348-.34h-1.215a.344.344,0,0,0-.348.34V356.4a.344.344,0,0,0,.348.34H118.6a.344.344,0,0,0,.348-.34v-1.188Z" transform="translate(-113.527 -343.97)"/>
        <path id="Path_12" data-name="Path 12" class="cls-4" d="M215.581,355.215a.344.344,0,0,0-.348-.34h-1.215a.344.344,0,0,0-.348.34V356.4a.344.344,0,0,0,.348.34h1.215a.344.344,0,0,0,.348-.34Z" transform="translate(-207.126 -343.97)"/>
        <path id="Path_13" data-name="Path 13" class="cls-4" d="M312.209,355.215a.344.344,0,0,0-.348-.34h-1.215a.344.344,0,0,0-.348.34V356.4a.344.344,0,0,0,.348.34h1.215a.344.344,0,0,0,.348-.34v-1.188Z" transform="translate(-300.717 -343.97)"/>
        <path id="Path_14" data-name="Path 14" class="cls-4" d="M19.076,54.149v1.814a1.5,1.5,0,0,1-1.519,1.481H16.6a1.507,1.507,0,0,1-1.528-1.481V54.142H10.751v1.821a1.507,1.507,0,0,1-1.528,1.481H8.265a1.5,1.5,0,0,1-1.519-1.481V54.149a1.365,1.365,0,0,0-1.335,1.344V66.126a1.367,1.367,0,0,0,1.375,1.352h12.25a1.368,1.368,0,0,0,1.375-1.352V55.492A1.365,1.365,0,0,0,19.076,54.149Zm-.445,11.315a.588.588,0,0,1-.594.581H7.759a.588.588,0,0,1-.594-.581V59.971a.588.588,0,0,1,.594-.581H18.036a.588.588,0,0,1,.594.581v5.493Z" transform="translate(-5.411 -52.478)"/>
        <path id="Path_15" data-name="Path 15" class="cls-4" d="M80.071,3.993h.948a.515.515,0,0,0,.521-.509V.509A.515.515,0,0,0,81.019,0h-.948a.515.515,0,0,0-.521.509V3.484A.515.515,0,0,0,80.071,3.993Z" transform="translate(-77.22)"/>
        <path id="Path_16" data-name="Path 16" class="cls-4" d="M344.979,3.993h.948a.515.515,0,0,0,.521-.509V.509A.515.515,0,0,0,345.927,0h-.948a.515.515,0,0,0-.521.509V3.484A.515.515,0,0,0,344.979,3.993Z" transform="translate(-333.804)"/>
      </g>
    </g>
  </g>
</svg>
