<?xml version="1.0" encoding="UTF-8"?>
<svg width="16px" height="16px" viewBox="0 0 16 16" version="1.1" xmlns="http://www.w3.org/2000/svg" xmlns:xlink="http://www.w3.org/1999/xlink">
    <!-- Generator: sketchtool 49 (51002) - http://www.bohemiancoding.com/sketch -->
    <title>85F116BC-87ED-40DE-A096-00AC96697D60</title>
    <desc>Created with sketchtool.</desc>
    <defs></defs>
    <g id="Page-1" stroke="none" stroke-width="1" fill="none" fill-rule="evenodd">
        <g id="-Soal-page-(murid)" transform="translate(-153.000000, -22.000000)" fill="#FFFFFF" fill-rule="nonzero">
            <g id="topbar">
                <g id="left-arrow-key" transform="translate(153.000000, 22.000000)">
                    <g id="001-logout-1">
                        <path d="M11.1250309,3.65340069 L11.1250309,0.975631616 C11.1250309,0.548740894 10.7758861,0.199466667 10.348866,0.199466667 L0.776164949,0.199466667 C0.349274227,0.199466667 0,0.548740894 0,0.975631616 L0,1.48013883 L0,11.5961553 L0,11.9455589 C0,12.2300234 0.168169072,12.5016811 0.41395464,12.6310419 L6.31280825,15.6840868 C6.5715299,15.8134476 6.88199588,15.6324718 6.88199588,15.3348125 L6.88199588,12.3595136 L10.348866,12.3595136 C10.7758861,12.3595136 11.1250309,12.0103687 11.1250309,11.5833486 L11.1250309,7.34031356 L9.57270104,7.34031356 L9.57270104,10.4191012 C9.57270104,10.6390146 9.40453197,10.8071837 9.18461856,10.8071837 L6.89493196,10.8071837 L6.89493196,6.82287026 L6.89493196,4.30033418 L6.89493196,4.22271768 C6.89493196,3.93812387 6.72676289,3.66646613 6.48097733,3.53710531 L3.00117114,1.75192593 L9.18461856,1.75192593 C9.40453197,1.75192593 9.57270104,1.920095 9.57270104,2.1400084 L9.57270104,3.66646613 L11.1250309,3.66646613 L11.1250309,3.65340069 Z" id="Shape"></path>
                        <path d="M13.1171876,2.38553525 L15.6397237,4.90807133 C15.9631258,5.23147339 15.9631258,5.71010844 15.6397237,6.03351051 L13.1171876,8.55604659 C12.7937856,8.87944865 12.3020851,8.8925141 11.978683,8.56911203 C11.6683464,8.25877542 11.7070253,7.74120276 12.0046845,7.43073678 L13.1429304,6.3052976 L8.73185568,6.3052976 C8.51207164,6.3052976 8.29202887,6.21474502 8.14973197,6.04657595 C7.78752166,5.65849348 7.87807423,4.9728811 8.3437732,4.71415945 C8.46019795,4.64947904 8.60249485,4.61067079 8.73185568,4.61067079 L13.1430598,4.61067079 C13.1430598,4.61067079 12.01775,3.48523162 12.0048139,3.48523162 C11.7071546,3.18770172 11.6683464,2.65732234 11.9788124,2.35979244 C12.2892784,2.04932646 12.7937856,2.06213318 13.1171876,2.38553525 Z" id="Shape"></path>
                    </g>
                </g>
            </g>
        </g>
    </g>
</svg>