<?xml version="1.0" encoding="UTF-8"?>
<svg width="16px" height="17px" viewBox="0 0 16 17" version="1.1" xmlns="http://www.w3.org/2000/svg" xmlns:xlink="http://www.w3.org/1999/xlink">
    <!-- Generator: sketchtool 49 (51002) - http://www.bohemiancoding.com/sketch -->
    <title>88BE7448-ABCB-478D-8701-D237B8B5A83A</title>
    <desc>Created with sketchtool.</desc>
    <defs></defs>
    <g id="Page-1" stroke="none" stroke-width="1" fill="none" fill-rule="evenodd">
        <g id="Beranda" transform="translate(-26.000000, -21.000000)" fill="#737F87" fill-rule="nonzero">
            <g id="Sidebar">
                <g id="Group-20" transform="translate(26.000000, 21.000000)">
                    <g id="line-menu" transform="translate(0.000000, 0.500000)">
                        <path d="M1.32075472,2.18181818 C0.566037736,2.18181818 0,1.72087068 0,1.10627401 C0,0.491677337 0.566037736,0 1.32075472,0 L14.6415094,0 C15.3962264,0 16,0.491677337 16,1.10627401 C16,1.72087068 15.3962264,2.18181818 14.6415094,2.18181818 L1.32075472,2.18181818 Z M14.6415094,7.11111111 C15.3962264,7.11111111 16,7.60278845 16,8.21738512 C16,8.83198179 15.3962264,9.29292929 14.6415094,9.29292929 L1.32075472,9.29292929 C0.566037736,9.29292929 0,8.83198179 0,8.21738512 C0,7.60278845 0.566037736,7.11111111 1.32075472,7.11111111 L14.6415094,7.11111111 Z M14.6415094,13.8181818 C15.3962264,13.8181818 16,14.2791293 16,14.893726 C16,15.5083227 15.3962264,16 14.6415094,16 L1.32075472,16 C0.566037736,16 0,15.5083227 0,14.893726 C0,14.2791293 0.566037736,13.8181818 1.32075472,13.8181818 L14.6415094,13.8181818 Z" id="Combined-Shape"></path>
                    </g>
                </g>
            </g>
        </g>
    </g>
</svg>