<?xml version="1.0" encoding="UTF-8"?>
<svg width="33px" height="33px" viewBox="0 0 33 33" version="1.1" xmlns="http://www.w3.org/2000/svg" xmlns:xlink="http://www.w3.org/1999/xlink">
    <!-- Generator: sketchtool 49 (51002) - http://www.bohemiancoding.com/sketch -->
    <title>54E52C77-44BB-47EB-8DAC-BDE6ECD77B26</title>
    <desc>Created with sketchtool.</desc>
    <defs></defs>
    <g id="Page-1" stroke="none" stroke-width="1" fill="none" fill-rule="evenodd">
        <g id="Beranda-(murid)" transform="translate(-217.000000, -1372.000000)" fill-rule="nonzero">
            <g id="Group-5-Copy" transform="translate(187.000000, 1271.000000)">
                <g id="Group-8" transform="translate(30.000000, 98.000000)">
                    <g id="mtk" transform="translate(0.000000, 3.000000)">
                        <circle id="Oval" fill="#FFF0F0" cx="16.5" cy="16.5" r="16.5"></circle>
                        <rect id="Rectangle-path" fill="#EFBB89" x="7.56" y="8.88" width="17.89" height="10.24" rx="0.5"></rect>
                        <rect id="Rectangle-path" fill="#EFBB89" transform="translate(10.823325, 16.998494) rotate(-80.000000) translate(-10.823325, -16.998494) " x="1.15832454" y="16.3284938" width="19.33" height="1.34" rx="0.08"></rect>
                        <rect id="Rectangle-path" fill="#EFBB89" transform="translate(22.185752, 16.992772) rotate(-10.000000) translate(-22.185752, -16.992772) " x="21.5157516" y="7.32777161" width="1.34" height="19.33" rx="0.08"></rect>
                        <rect id="Rectangle-path" fill="#00A077" x="8.31" y="9.53" width="16.38" height="8.94" rx="0.5"></rect>
                        <rect id="Rectangle-path" fill="#EFBB89" x="7.29" y="20.32" width="18.41" height="1" rx="0.1"></rect>
                        <rect id="Rectangle-path" fill="#EFBB89" x="9.57" y="23.96" width="13.86" height="1.09" rx="0.1"></rect>
                        <path d="M17.74,13.57 L15.01,13.57 C14.7764318,13.5754333 14.5899368,13.7663686 14.59,14 C14.59,14.2319596 14.7780404,14.42 15.01,14.42 L17.74,14.42 C17.8504938,14.4200329 17.9563234,14.3754666 18.0335074,14.2964001 C18.1106913,14.2173336 18.152695,14.1104609 18.15,14 C18.152684,13.8886001 18.1109882,13.7806998 18.0340916,13.7000522 C17.957195,13.6194045 17.8514014,13.5726208 17.74,13.57 Z" id="Shape" fill="#FFFFFF"></path>
                        <circle id="Oval" fill="#FFFFFF" cx="16.38" cy="12.73" r="1"></circle>
                        <circle id="Oval" fill="#FFFFFF" cx="16.38" cy="15.27" r="1"></circle>
                        <path d="M13.9,16.07 L11.07,16.07 C10.9617816,16.062456 10.864754,16.000599 10.8122425,15.9056744 C10.759731,15.8107497 10.7588869,15.6956849 10.81,15.6 L11.81,13.97 L10.81,12.33 C10.7588869,12.2343151 10.759731,12.1192503 10.8122425,12.0243256 C10.864754,11.929401 10.9617816,11.867544 11.07,11.86 L13.9,11.86 C14.0712083,11.86 14.21,11.9987917 14.21,12.17 C14.21,12.3412083 14.0712083,12.48 13.9,12.48 L11.62,12.48 L12.43,13.81 C12.4893089,13.9084224 12.4893089,14.0315776 12.43,14.13 L11.62,15.46 L13.9,15.46 C13.9803973,15.4571764 14.0583551,15.4878758 14.1152397,15.5447603 C14.1721242,15.6016449 14.2028236,15.6796027 14.2,15.76 C14.202711,15.8412831 14.1723048,15.9201838 14.1157474,15.9786265 C14.0591899,16.0370691 13.9813283,16.0700452 13.9,16.07 Z" id="Shape" fill="#FFFFFF"></path>
                        <rect id="Rectangle-path" fill="#FFFFFF" x="18.54" y="12.13" width="3.69" height="1" rx="0.31"></rect>
                        <rect id="Rectangle-path" fill="#FFFFFF" transform="translate(19.800000, 14.155000) rotate(-90.000000) translate(-19.800000, -14.155000) " x="18.085" y="13.655" width="3.43" height="1" rx="0.31"></rect>
                        <path d="M21.5,15.59 C21.1090401,14.7034398 20.9309595,13.737695 20.98,12.77 C20.98,12.53 21.09,12.44 21.27,12.43 C21.3526487,12.4129899 21.4384124,12.4371463 21.5000335,12.4947918 C21.5616546,12.5524373 21.5914686,12.636402 21.58,12.72 C21.5407765,13.6419818 21.7081937,14.5610683 22.07,15.41 C22.1140484,15.4823094 22.1201283,15.5715384 22.0862957,15.6491545 C22.052463,15.7267707 21.9829558,15.7830514 21.9,15.8 C21.74,15.85 21.6,15.8 21.5,15.59 Z" id="Shape" fill="#FFFFFF"></path>
                    </g>
                </g>
            </g>
        </g>
    </g>
</svg>