<?xml version="1.0" encoding="UTF-8"?>
<svg width="14px" height="18px" viewBox="0 0 14 18" version="1.1" xmlns="http://www.w3.org/2000/svg" xmlns:xlink="http://www.w3.org/1999/xlink">
    <!-- Generator: sketchtool 49 (51002) - http://www.bohemiancoding.com/sketch -->
    <title>34E7B172-670D-472D-B536-C492923CBC8D</title>
    <desc>Created with sketchtool.</desc>
    <defs></defs>
    <g id="Page-1" stroke="none" stroke-width="1" fill="none" fill-rule="evenodd">
        <g id="Beranda" transform="translate(-1249.000000, -22.000000)" fill="#BBC6D4" fill-rule="nonzero">
            <g id="topbar">
                <g id="Group-28" transform="translate(1208.000000, 13.000000)">
                    <g id="Group-24" transform="translate(40.000000, 8.000000)">
                        <g id="notification-(4)" transform="translate(1.000000, 1.000000)">
                            <path d="M6.93331458,17.0666667 C7.81730554,17.0666667 8.53333333,16.1120241 8.53333333,14.9333333 L5.33333333,14.9333333 C5.33329583,16.1120241 6.04932363,17.0666667 6.93331458,17.0666667 Z" id="Shape"></path>
                            <path d="M12.1333587,11.3454545 L12.1333587,7.14342121 C12.1333587,4.55917879 10.7163573,2.40354242 8.23335492,1.83205455 L8.23335492,1.26060606 C8.23335492,0.563057576 7.65270122,0 6.93335365,0 C6.21400607,0 5.63335238,0.563057576 5.63335238,1.26060606 L5.63335238,1.83209394 C3.15034995,2.40358182 1.73334857,4.55921818 1.73334857,7.14346061 L1.73334857,11.3454545 L0,13.0262758 L0,13.8666667 L13.8666667,13.8666667 L13.8666667,13.0262758 L12.1333587,11.3454545 Z" id="Shape"></path>
                        </g>
                    </g>
                </g>
            </g>
        </g>
    </g>
</svg>