<?xml version="1.0" encoding="UTF-8"?>
<svg width="19px" height="25px" viewBox="0 0 19 25" version="1.1" xmlns="http://www.w3.org/2000/svg" xmlns:xlink="http://www.w3.org/1999/xlink">
    <!-- Generator: sketchtool 49 (51002) - http://www.bohemiancoding.com/sketch -->
    <title>5B1C65A6-8697-4A3E-B620-11CC93D9CF53</title>
    <desc>Created with sketchtool.</desc>
    <defs></defs>
    <g id="Page-1" stroke="none" stroke-width="1" fill="none" fill-rule="evenodd">
        <g id="Upload-tugas-(murid)" transform="translate(-715.000000, -343.000000)" fill-rule="nonzero">
            <g id="Group-16" transform="translate(665.000000, 130.000000)">
                <g id="Group-15" transform="translate(0.000000, 46.000000)">
                    <g id="Group-3-Copy-3" transform="translate(30.000000, 154.000000)">
                        <g id="Group-2" transform="translate(20.000000, 13.000000)">
                            <g id="pdf">
                                <path d="M4.33333333,0 C3.6,0 3,0.703125 3,1.5625 L3,23.4375 C3,24.296875 3.6,25 4.33333333,25 L17.6666667,25 C18.4,25 19,24.296875 19,23.4375 L19,6.25 L13.6666667,0 L4.33333333,0 Z" id="Shape" fill="#E2E5E7"></path>
                                <path d="M15.25,6 L19,6 L14,0 L14,4.5 C14,5.325 14.5625,6 15.25,6 Z" id="Shape" fill="#B0B7BD"></path>
                                <polygon id="Shape" fill="#CAD1D8" points="19 11 15 6 19 6"></polygon>
                                <path d="M16,20.25 C16,20.6625 15.7,21 15.3333333,21 L0.666666667,21 C0.3,21 0,20.6625 0,20.25 L0,12.75 C0,12.3375 0.3,12 0.666666667,12 L15.3333333,12 C15.7,12 16,12.3375 16,12.75 L16,20.25 Z" id="Shape" fill="#F15642"></path>
                                <g id="Group" transform="translate(4.000000, 14.000000)" fill="#FFFFFF">
                                    <path d="M0.032736,0.406755556 C0.032736,0.219022222 0.179168,0.0142222222 0.415008,0.0142222222 L1.715296,0.0142222222 C2.447456,0.0142222222 3.1064,0.509155556 3.1064,1.45777778 C3.1064,2.35662222 2.447456,2.85724444 1.715296,2.85724444 L0.775456,2.85724444 L0.775456,3.60817778 C0.775456,3.85848889 0.61776,4 0.415008,4 C0.229152,4 0.032736,3.85848889 0.032736,3.60817778 L0.032736,0.406755556 Z M0.775456,0.730311111 L0.775456,2.14684444 L1.715296,2.14684444 C2.09264,2.14684444 2.391136,1.81048889 2.391136,1.45777778 C2.391136,1.06026667 2.09264,0.730311111 1.715296,0.730311111 L0.775456,0.730311111 Z" id="Shape"></path>
                                    <path d="M4.208864,4 C4.023008,4 3.820256,3.8976 3.820256,3.648 L3.820256,0.418133333 C3.820256,0.214044444 4.023008,0.0654222222 4.208864,0.0654222222 L5.497888,0.0654222222 C8.070304,0.0654222222 8.013984,4 5.548576,4 L4.208864,4 Z M4.56368,0.759466667 L4.56368,3.30666667 L5.497888,3.30666667 C7.017824,3.30666667 7.085408,0.759466667 5.497888,0.759466667 L4.56368,0.759466667 Z" id="Shape"></path>
                                    <path d="M8.926368,0.804977778 L8.926368,1.7088 L10.361824,1.7088 C10.564576,1.7088 10.767328,1.9136 10.767328,2.112 C10.767328,2.29973333 10.564576,2.45333333 10.361824,2.45333333 L8.926368,2.45333333 L8.926368,3.64728889 C8.926368,3.8464 8.786272,3.99928889 8.589152,3.99928889 C8.341344,3.99928889 8.189984,3.8464 8.189984,3.64728889 L8.189984,0.417422222 C8.189984,0.213333333 8.342048,0.0647111111 8.589152,0.0647111111 L10.56528,0.0647111111 C10.813088,0.0647111111 10.95952,0.213333333 10.95952,0.417422222 C10.95952,0.599466667 10.813088,0.804266667 10.56528,0.804266667 L8.926368,0.804266667 L8.926368,0.804977778 Z" id="Shape"></path>
                                </g>
                                <path d="M16.3,20.5 L3,20.5 L3,21 L16.3,21 C16.685,21 17,20.775 17,20.5 L17,20 C17,20.275 16.685,20.5 16.3,20.5 Z" id="Shape" fill="#CAD1D8"></path>
                            </g>
                        </g>
                    </g>
                </g>
            </g>
        </g>
    </g>
</svg>