<?xml version="1.0" encoding="UTF-8"?>
<svg width="16px" height="16px" viewBox="0 0 16 16" version="1.1" xmlns="http://www.w3.org/2000/svg" xmlns:xlink="http://www.w3.org/1999/xlink">
    <!-- Generator: sketchtool 49 (51002) - http://www.bohemiancoding.com/sketch -->
    <title>2DCD0B40-0D37-424C-90E3-0889CBBD1A66</title>
    <desc>Created with sketchtool.</desc>
    <defs></defs>
    <g id="Page-1" stroke="none" stroke-width="1" fill="none" fill-rule="evenodd">
        <g id="Beranda" transform="translate(-1212.000000, -22.000000)" fill="#BBC6D4" fill-rule="nonzero">
            <g id="topbar">
                <g id="Group-28" transform="translate(1208.000000, 13.000000)">
                    <g id="Group-25" transform="translate(0.000000, 8.000000)">
                        <g id="001-star" transform="translate(4.000000, 1.000000)">
                            <path d="M8,0 C3.58888531,0 0,3.58888531 0,8 C0,12.4111147 3.58888531,16 8,16 C12.4111147,16 16,12.4111147 16,8 C16,3.58888531 12.4111473,0 8,0 Z M13.1158548,6.85497671 L10.8125364,9.15829505 L11.453233,12.3617777 C11.4782765,12.4097777 11.4922004,12.4640387 11.4922004,12.5217888 C11.4922004,12.7165608 11.3120371,12.868224 11.1374173,12.8696262 L11.1304716,12.8696262 C11.0727216,12.8696262 11.0142867,12.8550175 10.9614279,12.8258 L8.00003261,11.1805913 L5.03863728,12.8258 C4.92036538,12.891898 4.77427823,12.8835501 4.66438677,12.8028435 C4.5551801,12.7228542 4.50228873,12.5864845 4.52873441,12.4536365 L5.18752879,9.15832766 L2.88421044,6.85500931 C2.78961249,6.76041136 2.7575907,6.61986769 2.80213424,6.49396535 C2.84596039,6.368063 2.95934098,6.27832375 3.09222159,6.26299764 L6.0445843,5.93534502 L7.69677133,2.96211272 C7.81921715,2.74157981 8.18234807,2.74157981 8.30476128,2.96211272 L9.95694831,5.93534502 L12.909311,6.26299764 C13.0421916,6.27760636 13.1548874,6.36734561 13.1993984,6.49396535 C13.2424419,6.61983508 13.2097679,6.76034614 13.1158548,6.85497671 Z" id="Shape"></path>
                        </g>
                    </g>
                </g>
            </g>
        </g>
    </g>
</svg>