<?xml version="1.0" encoding="UTF-8"?>
<svg width="15px" height="16px" viewBox="0 0 15 16" version="1.1" xmlns="http://www.w3.org/2000/svg" xmlns:xlink="http://www.w3.org/1999/xlink">
    <!-- Generator: sketchtool 49 (51002) - http://www.bohemiancoding.com/sketch -->
    <title>E462BA26-5E0F-47A2-A977-7B1B3720B8FC</title>
    <desc>Created with sketchtool.</desc>
    <defs></defs>
    <g id="Page-1" stroke="none" stroke-width="1" fill="none" fill-rule="evenodd">
        <g id="Quiz-page-(murid)" transform="translate(-28.000000, -202.000000)" fill="#FFFFFF" fill-rule="nonzero">
            <g id="Sidebar">
                <g id="Group-23" transform="translate(0.000000, 180.000000)">
                    <g id="004-list" transform="translate(28.000000, 22.000000)">
                        <path d="M12.5490114,1.60001125 L9.26666704,1.60001125 C8.945087,0.671999475 8.08233189,0 7.05880515,0 C6.0352784,0 5.17252329,0.671999475 4.85098001,1.60001125 L1.56863562,1.60001125 C0.701983466,1.60001125 0,2.31599819 0,3.2000225 L0,14.3999888 C0,15.2839756 0.701946701,16 1.56863562,16 L12.5490114,16 C13.4156636,16 14.1176471,15.2840131 14.1176471,14.3999888 L14.1176471,3.199985 C14.1176103,2.31599819 13.4156636,1.60001125 12.5490114,1.60001125 Z M7.05880515,1.60001125 C7.49016432,1.60001125 7.84310458,1.95599847 7.84310458,2.39999813 C7.84310458,2.84399778 7.49016432,3.199985 7.05880515,3.199985 C6.62744598,3.199985 6.27450572,2.84399778 6.27450572,2.39999813 C6.27450572,1.95599847 6.62744598,1.60001125 7.05880515,1.60001125 Z M5.49020629,12.7999775 L2.35293505,9.5999925 L3.46274834,8.46798088 L5.49020629,10.5359918 L10.6548987,5.26799588 L11.764712,6.4000075 L5.49020629,12.7999775 Z" id="Shape"></path>
                    </g>
                </g>
            </g>
        </g>
    </g>
</svg>