<svg xmlns="http://www.w3.org/2000/svg" viewBox="426 324 15 15">
  <defs>
    <style>
      .cls-1 {
        fill: #c6d3db;
      }
    </style>
  </defs>
  <g id="time" transform="translate(426 324)">
    <path id="Path_6" data-name="Path 6" class="cls-1" d="M7.5,0A7.5,7.5,0,1,0,15,7.5,7.509,7.509,0,0,0,7.5,0Zm0,14.5a7,7,0,1,1,7-7A7.008,7.008,0,0,1,7.5,14.5Z"/>
    <path id="Path_7" data-name="Path 7" class="cls-1" d="M17.25,6a.25.25,0,0,0-.25.25V12H13.25a.25.25,0,0,0,0,.5h4a.25.25,0,0,0,.25-.25v-6A.25.25,0,0,0,17.25,6Z" transform="translate(-9.75 -4.5)"/>
  </g>
</svg>
